<svg xmlns="http://www.w3.org/2000/svg" xmlns:xlink="http://www.w3.org/1999/xlink" width="130" height="38" viewBox="0 0 130 38">
  <defs>
    <clipPath id="clip-path">
      <rect id="Rectangle_5922" data-name="Rectangle 5922" width="130" height="38" transform="translate(0 0)" fill="none"/>
    </clipPath>
  </defs>
  <g id="Group_11627" data-name="Group 11627" transform="translate(0 -0.207)">
    <g id="Group_11626" data-name="Group 11626" transform="translate(0 0.207)" clip-path="url(#clip-path)">
      <path id="Path_10444" data-name="Path 10444" d="M257.743,40.293a1.935,1.935,0,0,0-3.294,1.359,1.961,1.961,0,0,0,.577,1.4,1.866,1.866,0,0,0,1.358.576,1.776,1.776,0,0,0,1.318-.576,1.867,1.867,0,0,0,.576-1.359,1.72,1.72,0,0,0-.535-1.4" transform="translate(-142.353 -22.43)" fill="#257d9e"/>
      <path id="Path_10445" data-name="Path 10445" d="M68.543.248a2.635,2.635,0,0,0-1.276,3.458A2.606,2.606,0,1,0,72,1.524,2.574,2.574,0,0,0,68.543.248" transform="translate(-37.504 -0.21)" fill="#257d9e"/>
      <path id="Path_10446" data-name="Path 10446" d="M20.828,22.1a5.111,5.111,0,1,0,6.792,2.47,5.117,5.117,0,0,0-6.792-2.47" transform="translate(-10.002 -12.305)" fill="#257d9e"/>
      <path id="Path_10447" data-name="Path 10447" d="M3.7,50.427A6.409,6.409,0,0,0,9.138,62.036,6.409,6.409,0,0,0,3.7,50.427" transform="translate(0 -28.076)" fill="#257d9e"/>
      <path id="Path_10448" data-name="Path 10448" d="M44.442,6.013a3.748,3.748,0,1,0,4.981,1.812,3.746,3.746,0,0,0-4.981-1.812" transform="translate(-23.654 -3.381)" fill="#257d9e"/>
      <path id="Path_10449" data-name="Path 10449" d="M104.2,21.692a.617.617,0,1,0,.823.288.6.6,0,0,0-.823-.288" transform="translate(-58.093 -12.309)" fill="#257d9e"/>
      <path id="Path_10450" data-name="Path 10450" d="M87.543,3.456a1.706,1.706,0,0,0-.823,2.223,1.676,1.676,0,1,0,3.046-1.4,1.684,1.684,0,0,0-2.223-.823" transform="translate(-48.435 -2.059)" fill="#257d9e"/>
      <path id="Path_10451" data-name="Path 10451" d="M99.226,12.868a1.049,1.049,0,1,0,1.4.494,1.1,1.1,0,0,0-1.4-.494" transform="translate(-55.178 -7.354)" fill="#257d9e"/>
      <path id="Path_10452" data-name="Path 10452" d="M42.617,50.182a5.9,5.9,0,0,0-4.405,1.812,6.31,6.31,0,0,0-1.77,4.528,6.019,6.019,0,0,0,1.77,4.446,6.174,6.174,0,0,0,4.57,1.77,6.743,6.743,0,0,0,3.128-.659A5.725,5.725,0,0,0,48.175,60.1L45.663,58.91a4.01,4.01,0,0,1-2.882,1.152,3.519,3.519,0,0,1-2.305-.741A3.1,3.1,0,0,1,39.365,57.3h9.592v-.576a6.528,6.528,0,0,0-1.77-4.776,6.2,6.2,0,0,0-4.569-1.77m-3.129,4.776A4.031,4.031,0,0,1,40.6,53.393a3.634,3.634,0,0,1,2.182-.7,3.351,3.351,0,0,1,2.017.617,2.81,2.81,0,0,1,1.153,1.606Z" transform="translate(-20.388 -28.284)" fill="#2e373a"/>
      <path id="Path_10453" data-name="Path 10453" d="M81.456,42.263a12.126,12.126,0,0,0-5.228-.864H72.605V57.537h3.7a15.644,15.644,0,0,0,4.405-.412,5.437,5.437,0,0,0,2.346-1.441,7.085,7.085,0,0,0,1.688-2.593,9.869,9.869,0,0,0-.494-7.987,6.9,6.9,0,0,0-2.8-2.841m.206,10.127A3.481,3.481,0,0,1,80.1,54a6.922,6.922,0,0,1-3.046.494H75.61V44.322H76.64A5.717,5.717,0,0,1,80.8,45.6a5.387,5.387,0,0,1,1.441,3.993,5.759,5.759,0,0,1-.576,2.8" transform="translate(-40.619 -23.371)" fill="#2e373a"/>
      <path id="Path_10454" data-name="Path 10454" d="M112.006,58.381l-3.087-7.451h-3.046L110.4,61.921l-2.429,5.269h3.088L118.51,50.93h-3.087Z" transform="translate(-59.231 -28.703)" fill="#2e373a"/>
      <path id="Path_10455" data-name="Path 10455" d="M146.338,50.183a4.728,4.728,0,0,0-1.688.33,7.222,7.222,0,0,0-1.852,1.193V50.471h-3.005V62.409H142.8V57.634a14.563,14.563,0,0,1,.123-2.429,3.2,3.2,0,0,1,.906-1.688,2.211,2.211,0,0,1,1.564-.618,1.963,1.963,0,0,1,1.194.37,1.913,1.913,0,0,1,.659,1.071,13.028,13.028,0,0,1,.206,2.841v5.228h2.964V54.547a4.284,4.284,0,0,0-1.029-3.129,4.228,4.228,0,0,0-3.046-1.235" transform="translate(-78.207 -28.285)" fill="#2e373a"/>
      <path id="Path_10456" data-name="Path 10456" d="M179.974,51.736a6.086,6.086,0,0,0-1.729-1.235,4.782,4.782,0,0,0-2.017-.412,5.081,5.081,0,0,0-3.952,1.77,6.51,6.51,0,0,0-1.646,4.528,6.292,6.292,0,0,0,1.687,4.446,5.331,5.331,0,0,0,3.993,1.812,4.709,4.709,0,0,0,1.894-.37,7.05,7.05,0,0,0,1.77-1.194v1.276h3V50.419h-3Zm-.823,7.2a3.232,3.232,0,0,1-4.652,0,3.617,3.617,0,0,1-.947-2.553,3.491,3.491,0,0,1,.906-2.511,2.989,2.989,0,0,1,2.3-.988,3.2,3.2,0,0,1,2.347.947,3.518,3.518,0,0,1,.947,2.511,3.459,3.459,0,0,1-.906,2.593" transform="translate(-95.46 -28.232)" fill="#2e373a"/>
      <path id="Path_10457" data-name="Path 10457" d="M223.312,50.759a4.08,4.08,0,0,0-2.223-.576,4.712,4.712,0,0,0-2.264.535,4.608,4.608,0,0,0-1.729,1.605,4.221,4.221,0,0,0-1.441-1.605,3.8,3.8,0,0,0-2.017-.535,4.843,4.843,0,0,0-2.058.411,4.955,4.955,0,0,0-1.688,1.276V50.512h-3.005V62.45h3.005V57.1a7.57,7.57,0,0,1,.288-2.512,2.56,2.56,0,0,1,.906-1.235,2.338,2.338,0,0,1,1.358-.453,1.84,1.84,0,0,1,1.153.37,2.038,2.038,0,0,1,.7,1.071,7.741,7.741,0,0,1,.247,2.305v5.763h3.005V57.017a7.134,7.134,0,0,1,.288-2.47,2.647,2.647,0,0,1,.906-1.194A2.338,2.338,0,0,1,220.1,52.9a1.806,1.806,0,0,1,1.523.7,5.344,5.344,0,0,1,.494,2.758v6.051h3.005v-7a7.991,7.991,0,0,0-.412-3.087,3.625,3.625,0,0,0-1.4-1.564" transform="translate(-115.743 -28.285)" fill="#2e373a"/>
      <rect id="Rectangle_5921" data-name="Rectangle 5921" width="3.005" height="11.938" transform="translate(112.55 22.227)" fill="#2e373a"/>
      <path id="Path_10458" data-name="Path 10458" d="M274.4,56.528l4.035-5.6h-3.417l-2.347,3.211-2.346-3.211h-3.5l4.117,5.64-4.528,6.257h3.417l2.84-3.911,2.8,3.911h3.5Z" transform="translate(-149.045 -28.703)" fill="#2e373a"/>
    </g>
  </g>
</svg>
